<?xml version="1.0" encoding="UTF-8" standalone="no"?>
<svg
   data-noselect=""
   viewBox="0 0 300 100"
   width="300"
   height="100"
   preserveAspectRatio="none"
   version="1.1"
   class="svg-canvas"
   id="svg55"
   sodipodi:docname="wrap.pub.logo.svg"
   inkscape:version="1.1.2 (76b9e6a115, 2022-02-25)"
   xmlns:inkscape="http://www.inkscape.org/namespaces/inkscape"
   xmlns:sodipodi="http://sodipodi.sourceforge.net/DTD/sodipodi-0.dtd"
   xmlns="http://www.w3.org/2000/svg"
   xmlns:svg="http://www.w3.org/2000/svg">
  <sodipodi:namedview
     id="namedview57"
     pagecolor="#ffffff"
     bordercolor="#666666"
     borderopacity="1.0"
     inkscape:pageshadow="2"
     inkscape:pageopacity="0.0"
     inkscape:pagecheckerboard="true"
     showgrid="false"
     inkscape:zoom="2"
     inkscape:cx="169.25"
     inkscape:cy="49.75"
     inkscape:window-width="1848"
     inkscape:window-height="1009"
     inkscape:window-x="72"
     inkscape:window-y="34"
     inkscape:window-maximized="1"
     inkscape:current-layer="svg55" />
  <defs
     id="defs2" />
  <g
     id="background"
     data-noselect="">
    <!---->
    <!---->
  </g>
  <g
     id="g11"
     transform="matrix(0.47900003,0,0,0.55393053,4,4.163877)"
     style="fill:#05877b;fill-opacity:1">
    <path
       d="M 53,55.4 43.7,71.5 42.6,73.4 0,0 H 43.3 L 66.4,39.8 C 61,44.1 56.4,49.4 53,55.4 Z"
       fill="#05877b"
       stroke-width="0"
       id="path7"
       style="fill:#05877b;fill-opacity:1" />
    <path
       d="m 194,74.8 h -92.4 c -1.9,0 -3.7,0.6 -5.2,1.7 -1,0.7 -1.8,1.6 -2.4,2.7 L 91.6,83.3 77,108.5 71.5,118 43.3,166.6 H 0 l 48.3,-83.3 3.9,-6.8 v 0 l 9.3,-16.1 c 2.6,-4.5 6,-8.5 9.8,-11.8 1.7,-1.5 3.6,-2.8 5.5,-4.1 7.3,-4.6 15.8,-7.2 24.7,-7.2 h 69.9 z"
       fill="#f07a19"
       stroke-width="0"
       id="path9"
       style="fill:#05877b;fill-opacity:1" />
  </g>
  <g
     id="shape_kWT9WDwXf4"
     transform="matrix(0.67567014,0,0,0.79449162,52.951328,-144.43988)"
     filter=""
     style="opacity:1">
    <g
       id="g29">
      <svg
         version="1.1"
         width="571.15997"
         height="499.26968"
         viewBox="0 0 571.16 499.26969"
         id="svg27">
        <g
           data-width="285.16"
           transform="translate(71.29)"
           id="g25">
          <path
             d="m 3.41,-48.8 v 24.78 q 0,0.42 0.21,0.77 v 0 L 17.47,2.37 q 0.42,0.9 1.4,0.9 v 0 h 6.68 q 0.97,0 1.39,-0.9 v 0 l 8.71,-16.02 8.63,16.02 q 0.49,0.9 1.46,0.9 v 0 h 6.68 q 0.91,0 1.4,-0.9 v 0 l 13.85,-25.62 q 0.14,-0.35 0.14,-0.77 v 0 -24.78 q 0,-1.6 -1.6,-1.6 v 0 h -7.52 q -1.6,0 -1.6,1.6 v 0 22.07 q 0,0.41 -0.21,0.76 v 0 l -7.8,14.62 -7.87,-14.62 q -0.2,-0.35 -0.2,-0.76 v 0 -22.07 q 0,-1.6 -1.61,-1.6 v 0 h -7.51 q -1.61,0 -1.61,1.6 v 0 22.07 q 0,0.41 -0.2,0.76 v 0 l -7.87,14.62 -7.87,-14.62 q -0.21,-0.35 -0.21,-0.76 v 0 -22.07 q 0,-1.6 -1.6,-1.6 v 0 H 5.01 q -1.6,0 -1.6,1.6 z"
             transform="translate(0,275.13484)"
             fill="#05877b"
             stroke="#05877b"
             stroke-width="0.119"
             data-glyph-w="71.29"
             data-glyph-h="69.619140625"
             data-glyph-ascender="61.26484375"
             data-glyph-descender="-8.354296875"
             id="path17" />
          <path
             d="M 5.01,-50.4 H 59.8 q 2.02,0 4.04,0.97 v 0 q 3.97,2.02 3.97,7.03 v 0 16.15 q 0,5.02 -3.97,7.04 v 0 q -2.02,0.97 -4.04,0.97 v 0 H 52.49 L 68.3,0.63 q 0.69,0.76 0.21,1.67 v 0 q -0.42,0.97 -1.47,0.97 v 0 h -9.81 q -0.7,0 -1.19,-0.62 v 0 L 38.5,-18.24 H 14.13 V 1.67 q 0,1.6 -1.6,1.6 v 0 H 5.01 q -1.6,0 -1.6,-1.6 v 0 -50.47 q 0,-1.6 1.6,-1.6 z m 49.43,4.03 H 15.8 q -1.67,0 -1.67,1.6 v 0 22.49 h 40.31 q 2.65,0 2.65,-2.64 v 0 -18.17 q 0,-3.28 -2.65,-3.28 z"
             transform="translate(71.29,275.13484)"
             fill="#05877b"
             stroke="#05877b"
             stroke-width="0.119"
             data-glyph-w="71.29"
             data-glyph-h="69.619140625"
             data-glyph-ascender="61.26484375"
             data-glyph-descender="-8.354296875"
             id="path19" />
          <path
             d="m 3.41,-23.46 v 25.2 q 0,1.6 1.6,1.6 v 0 h 7.52 q 1.6,0 1.6,-1.6 v 0 -14.55 H 57.09 V 1.74 q 0,1.6 1.6,1.6 v 0 h 7.52 q 1.6,0 1.6,-1.6 v 0 -25.2 q 0,-0.56 -0.28,-0.98 v 0 L 49.15,-49.71 q -0.49,-0.62 -1.32,-0.62 v 0 H 23.39 q -0.76,0 -1.25,0.62 v 0 L 3.76,-24.44 q -0.35,0.42 -0.35,0.98 z m 53.68,6.68 H 14.13 v -3.2 q 0,-0.56 0.35,-0.98 v 0 l 17.96,-24.71 q 0.49,-0.63 1.33,-0.63 v 0 h 3.75 q 0.77,0 1.26,0.63 v 0 l 18.03,24.71 q 0.28,0.42 0.28,0.98 v 0 z"
             transform="translate(142.58,275.13484)"
             fill="#05877b"
             stroke="#05877b"
             stroke-width="0.119"
             data-glyph-w="71.29"
             data-glyph-h="69.619140625"
             data-glyph-ascender="61.26484375"
             data-glyph-descender="-8.354296875"
             id="path21" />
          <path
             d="M 5.01,-50.4 H 59.8 q 2.02,0 4.04,0.97 v 0 q 3.97,2.02 3.97,7.03 v 0 16.15 q 0,5.02 -3.97,7.04 v 0 q -2.02,0.97 -4.04,0.97 v 0 H 14.13 V 1.67 q 0,1.6 -1.6,1.6 v 0 H 5.01 q -1.6,0 -1.6,-1.6 v 0 -50.47 q 0,-1.6 1.6,-1.6 z m 49.43,4.03 H 15.8 q -1.67,0 -1.67,1.6 v 0 22.49 h 40.31 q 2.65,0 2.65,-2.64 v 0 -18.17 q 0,-3.28 -2.65,-3.28 z"
             transform="translate(213.87,275.13484)"
             fill="#05877b"
             stroke="#05877b"
             stroke-width="0.119"
             data-glyph-w="71.29"
             data-glyph-h="69.619140625"
             data-glyph-ascender="61.26484375"
             data-glyph-descender="-8.354296875"
             id="path23" />
        </g>
      </svg>
    </g>
  </g>
  <g
     id="shape_X5O55yYPkv"
     transform="matrix(0.84110488,0,0,1.9055026,32.091838,-79.209115)"
     filter=""
     style="opacity:1">
    <g
       id="g42">
      <svg
         version="1.1"
         width="145.60001"
         height="168.2"
         viewBox="0 0 145.6 168.2"
         id="svg40">
        <g
           data-width="52.203250000000004"
           transform="translate(23.15)"
           id="g38">
          <path
             d="m 11.46,-15.93 q 1.41,0 2.6,0.7 1.2,0.69 1.89,1.87 0.69,1.18 0.69,2.6 v 0 q 0,1.41 -0.69,2.6 -0.69,1.19 -1.89,1.89 -1.19,0.69 -2.6,0.69 v 0 H 4.65 V 0 h -3.7 v -15.93 z m -1.23,7.87 q 1.11,0 1.9,-0.78 0.79,-0.79 0.79,-1.92 v 0 q 0,-1.12 -0.79,-1.9 -0.79,-0.79 -1.9,-0.79 v 0 H 4.65 v 5.39 z"
             transform="translate(0,92.6)"
             fill="#05877b"
             stroke="#05877b"
             stroke-width="0.039"
             data-glyph-w="17.4088"
             data-glyph-h="27.78"
             data-glyph-ascender="23.15"
             data-glyph-descender="-4.63"
             id="path32" />
          <path
             d="m 0.95,-15.93 h 3.73 v 11.58 q 0,0.76 0.54,1.31 0.54,0.54 1.33,0.54 v 0 h 4.1 q 0.79,0 1.33,-0.54 0.54,-0.55 0.54,-1.31 v 0 -11.58 h 3.73 v 12.3 q 0,0.97 -0.5,1.8 Q 15.26,-1 14.42,-0.5 13.59,0 12.62,0 V 0 H 4.58 Q 3.59,0 2.75,-0.49 1.92,-0.97 1.44,-1.82 0.95,-2.66 0.95,-3.63 v 0 z"
             transform="translate(17.4088,92.6)"
             fill="#05877b"
             stroke="#05877b"
             stroke-width="0.039"
             data-glyph-w="17.20045"
             data-glyph-h="27.78"
             data-glyph-ascender="23.15"
             data-glyph-descender="-4.63"
             id="path34" />
          <path
             d="m 14.95,-8.15 q 0.79,0.63 1.24,1.55 0.45,0.93 0.45,1.99 v 0 q 0,1.25 -0.62,2.31 -0.63,1.05 -1.68,1.67 Q 13.29,0 12.04,0 V 0 H 0.95 v -15.93 h 10.67 q 1.25,0 2.3,0.63 1.06,0.62 1.68,1.68 0.63,1.05 0.63,2.3 v 0 q 0,0.9 -0.34,1.71 -0.33,0.81 -0.94,1.46 z m -10.3,-5.3 v 4.26 h 5.74 q 0.88,0 1.5,-0.63 0.61,-0.62 0.61,-1.5 v 0 q 0,-0.88 -0.61,-1.51 -0.62,-0.62 -1.5,-0.62 v 0 z m 8.27,8.84 q 0,-0.88 -0.62,-1.49 -0.61,-0.61 -1.49,-0.61 v 0 H 4.65 v 4.21 h 6.16 q 0.88,0 1.49,-0.61 0.62,-0.62 0.62,-1.5 z"
             transform="translate(34.60925,92.6)"
             fill="#05877b"
             stroke="#05877b"
             stroke-width="0.039"
             data-glyph-w="17.594"
             data-glyph-h="27.78"
             data-glyph-ascender="23.15"
             data-glyph-descender="-4.63"
             id="path36" />
        </g>
      </svg>
    </g>
  </g>
  <defs
     id="defs51">
    <pattern
       id="wm_tile"
       x="0"
       y="0"
       width="20%"
       height="27%"
       patternunits="objectBoundingBox">
      <g
         id="wm_lm"
         transform="translate(-188.000000, -323.000000)"
         fill="#cccccc">
        <text
           font-size="15"
           transform="translate(270.490979, 373.245789) rotate(-390.000000) translate(-270.490979, -373.245789)"
           id="text47"><tspan
             x="187.490979"
             opacity=".3"
             y="378.245789"
             id="tspan45">copyright © copyright © </tspan></text>
      </g>
    </pattern>
  </defs>
</svg>
