<?xml version="1.0" standalone="no"?>
<!DOCTYPE svg PUBLIC "-//W3C//DTD SVG 20010904//EN"
 "http://www.w3.org/TR/2001/REC-SVG-20010904/DTD/svg10.dtd">
<svg version="1.0" xmlns="http://www.w3.org/2000/svg"
 width="700.000000pt" height="700.000000pt" viewBox="0 0 700.000000 700.000000"
 preserveAspectRatio="xMidYMid meet">
<metadata>
Created by potrace 1.14, written by Peter Selinger 2001-2017
</metadata>
<g transform="translate(0.000000,700.000000) scale(0.100000,-0.100000)"
fill="#000000" stroke="none">
<path d="M1081 6593 c45 -87 105 -203 134 -258 29 -55 87 -167 130 -250 43
-82 99 -190 125 -240 26 -49 87 -166 135 -260 48 -93 107 -206 130 -250 23
-44 109 -208 190 -365 81 -157 154 -296 162 -309 l15 -23 15 28 c8 16 64 126
125 244 61 118 124 240 141 270 76 139 176 272 281 374 l50 48 -47 92 c-26 50
-77 147 -113 216 -36 69 -113 217 -171 330 -58 113 -116 223 -128 245 -12 22
-48 91 -79 153 l-57 112 -560 0 -560 0 82 -157z"/>
<path d="M3577 5674 c-1 -1 -31 -4 -67 -7 -36 -3 -74 -8 -85 -11 -11 -2 -41
-9 -67 -15 -159 -37 -348 -140 -487 -266 -59 -54 -97 -95 -159 -170 -60 -74
-114 -173 -442 -810 -51 -99 -119 -231 -151 -292 -130 -249 -180 -345 -259
-498 -45 -88 -104 -200 -130 -250 -52 -99 -133 -254 -260 -500 -45 -88 -106
-205 -135 -260 -29 -55 -79 -152 -112 -215 -33 -63 -97 -186 -142 -272 l-82
-158 559 0 559 0 31 58 c16 31 60 116 97 187 37 72 93 180 125 240 31 61 97
187 145 280 48 94 105 202 125 240 21 39 81 156 135 260 54 105 110 213 125
240 15 28 71 136 125 240 54 105 115 222 135 260 20 39 83 160 140 270 151
295 161 309 235 348 40 21 42 21 1257 21 l1216 0 -45 86 c-26 47 -75 139 -111
205 -36 66 -81 149 -100 185 -19 36 -49 92 -67 125 -18 33 -44 80 -57 105
-138 257 -202 370 -212 371 -15 2 -1837 4 -1839 3z"/>
<path d="M3535 3027 l0 -1062 95 0 94 0 0 370 1 370 174 2 c96 1 184 4 195 7
68 17 139 138 179 306 36 146 39 173 42 360 4 336 -66 593 -189 688 -28 22
-35 22 -310 22 l-281 0 0 -1063z m511 707 c23 -29 61 -115 70 -160 5 -21 9
-104 9 -184 0 -127 -3 -154 -24 -215 -28 -82 -47 -110 -81 -124 -24 -9 -249
-13 -281 -5 -13 4 -15 45 -16 352 0 191 3 349 8 352 4 3 73 4 154 4 130 -1
148 -4 161 -20z"/>
<path d="M4405 3203 c1 -489 5 -906 9 -928 21 -129 65 -242 112 -286 25 -24
27 -24 247 -25 171 -1 228 2 249 12 45 23 109 153 124 251 3 21 8 49 11 63 3
14 7 424 8 913 l2 887 -93 0 c-83 0 -94 -2 -95 -17 0 -10 -1 -380 -3 -823 -1
-443 -6 -818 -10 -834 -4 -16 -16 -45 -26 -66 -23 -46 -38 -50 -174 -49 -91 1
-101 3 -121 25 -20 22 -59 144 -54 170 1 5 1 366 0 802 l-1 792 -94 0 -93 0 2
-887z"/>
<path d="M5260 3026 l0 -1063 294 1 295 1 36 35 c35 33 99 153 109 202 3 13
13 59 22 103 14 61 18 126 19 275 0 209 -10 284 -52 402 -23 66 -23 69 -7 130
32 126 42 221 39 393 -2 94 -6 186 -10 204 -36 179 -96 320 -154 358 -33 23
-39 23 -312 23 l-279 0 0 -1064z m499 720 c6 -4 19 -22 28 -39 33 -64 43 -129
40 -257 -3 -109 -7 -132 -30 -183 -16 -36 -34 -60 -49 -66 -13 -4 -86 -8 -163
-7 l-140 1 -1 270 c0 149 1 275 3 280 4 12 293 13 312 1z m29 -909 c11 -10 30
-50 42 -90 45 -141 20 -374 -45 -426 -21 -16 -44 -19 -180 -20 -119 -1 -155 1
-156 11 -4 38 -5 534 -1 541 2 5 75 7 162 5 135 -3 161 -6 178 -21z"/>
<path d="M209 1482 c-8 -3 -17 -10 -21 -16 -4 -6 -8 -152 -8 -324 l0 -314 39
-71 c21 -40 63 -119 93 -177 31 -58 74 -140 97 -183 23 -44 58 -110 77 -147
19 -37 41 -71 50 -74 9 -3 55 -6 102 -6 97 0 89 -5 140 90 54 101 121 228 142
268 12 23 25 42 30 42 4 0 18 -21 32 -47 13 -27 57 -111 97 -188 40 -77 80
-146 89 -152 16 -13 182 -16 200 -4 9 7 45 69 124 221 31 58 80 152 111 210
30 58 68 130 84 161 l29 56 0 321 c-1 176 -5 324 -9 328 -13 13 -225 10 -238
-3 -7 -7 -11 -100 -10 -292 l0 -282 -65 -127 c-79 -151 -125 -234 -129 -230
-2 2 -40 75 -85 163 -46 88 -87 166 -93 173 -6 8 -10 123 -10 298 0 338 12
312 -137 309 -53 -1 -101 -5 -108 -9 -9 -5 -12 -81 -12 -300 0 -160 -4 -296
-9 -301 -5 -6 -44 -77 -86 -160 -43 -82 -83 -156 -89 -162 -12 -13 -15 -7
-152 259 l-45 87 -1 279 c0 154 -4 285 -8 292 -8 13 -188 22 -221 12z"/>
<path d="M1900 1478 c-24 -9 -22 65 -23 -667 -2 -462 1 -608 10 -621 11 -15
29 -18 123 -17 70 0 113 4 118 11 4 6 7 124 7 261 l0 250 285 0 285 1 31 -31
c16 -16 59 -66 94 -110 36 -44 69 -85 75 -91 5 -6 21 -26 35 -44 14 -18 30
-38 35 -44 6 -6 44 -51 85 -101 41 -50 78 -93 83 -96 6 -4 66 -7 134 -7 110 0
127 2 144 19 14 14 17 24 10 37 -9 15 -239 299 -294 362 -12 14 -36 43 -54 65
l-31 41 91 -1 c145 -1 212 27 248 102 22 45 23 57 22 282 0 252 -2 278 -29
320 -22 33 -40 48 -84 68 -31 15 -108 17 -708 17 -370 1 -681 -2 -692 -6z
m1227 -107 c27 -14 28 -30 28 -309 -1 -201 -3 -234 -17 -248 -15 -15 -66 -17
-501 -17 -267 0 -489 3 -493 6 -7 4 -11 464 -5 550 0 10 10 21 20 25 33 12
945 6 968 -7z"/>
<path d="M4055 1480 c-23 -4 -42 -24 -89 -92 -34 -47 -135 -191 -226 -318
l-165 -232 -1 -317 c0 -174 3 -324 8 -334 8 -16 23 -18 124 -16 69 1 117 6
121 12 3 6 7 92 8 191 1 100 3 183 4 186 0 3 228 5 506 5 l505 0 1 -35 c0 -19
1 -102 0 -185 0 -92 4 -154 11 -162 14 -17 219 -18 236 -1 9 9 12 97 12 336
l0 324 -41 57 c-22 31 -79 110 -125 176 -47 66 -92 129 -100 140 -8 11 -52 73
-99 139 -46 65 -86 120 -89 123 -6 6 -565 9 -601 3z m445 -232 c52 -73 96
-135 99 -138 3 -3 12 -14 19 -25 21 -34 44 -67 136 -195 68 -93 91 -134 96
-166 4 -24 4 -47 1 -51 -5 -7 -948 -10 -1008 -4 -9 1 -12 16 -10 46 2 41 29
90 75 140 6 7 12 18 12 23 0 6 3 12 8 14 4 2 68 89 141 193 74 105 152 214
173 243 l39 52 63 0 63 0 93 -132z"/>
<path d="M5283 1472 c-10 -11 -13 -132 -13 -647 0 -598 1 -635 18 -644 22 -12
201 -11 225 1 15 8 17 31 17 261 l0 252 563 1 c550 0 563 0 609 21 31 14 56
35 75 64 l28 43 1 255 c1 160 -3 265 -9 281 -22 52 -52 83 -96 103 -45 20 -60
21 -725 22 -553 0 -682 -2 -693 -13z m1246 -106 c14 -14 16 -51 19 -274 3
-248 2 -259 -17 -276 -19 -17 -49 -18 -478 -18 -252 0 -473 1 -490 1 l-33 1 0
285 c0 236 2 285 14 292 8 4 229 7 491 7 428 -2 479 -3 494 -18z"/>
</g>
</svg>
